<mxfile host="app.diagrams.net" modified="2020-09-11T17:48:54.169Z" agent="5.0 (Windows NT 10.0; Win64; x64) AppleWebKit/537.36 (KHTML, like Gecko) Chrome/84.0.4147.135 Safari/537.36" etag="vAciDIt-9dd6khCFpgva" version="13.6.10" type="github">
  <diagram id="cP-nUbjDXRPLx626jsmA" name="Page-1">
    <mxGraphModel dx="1422" dy="762" grid="1" gridSize="10" guides="1" tooltips="1" connect="1" arrows="1" fold="1" page="1" pageScale="1" pageWidth="827" pageHeight="1169" math="0" shadow="0">
      <root>
        <mxCell id="0" />
        <mxCell id="1" parent="0" />
        <mxCell id="25D4_33Wl1cBIHMB8N5j-4" value="这还挺好用" style="shape=table;html=1;whiteSpace=wrap;startSize=30;container=1;collapsible=0;childLayout=tableLayout;fontStyle=1;align=center;" vertex="1" parent="1">
          <mxGeometry x="130" y="50" width="510" height="190" as="geometry" />
        </mxCell>
        <mxCell id="25D4_33Wl1cBIHMB8N5j-5" value="" style="shape=partialRectangle;html=1;whiteSpace=wrap;collapsible=0;dropTarget=0;pointerEvents=0;fillColor=none;top=0;left=0;bottom=0;right=0;points=[[0,0.5],[1,0.5]];portConstraint=eastwest;" vertex="1" parent="25D4_33Wl1cBIHMB8N5j-4">
          <mxGeometry y="30" width="510" height="53" as="geometry" />
        </mxCell>
        <mxCell id="25D4_33Wl1cBIHMB8N5j-6" value="12" style="shape=partialRectangle;html=1;whiteSpace=wrap;connectable=0;fillColor=none;top=0;left=0;bottom=0;right=0;overflow=hidden;" vertex="1" parent="25D4_33Wl1cBIHMB8N5j-5">
          <mxGeometry width="90" height="53" as="geometry" />
        </mxCell>
        <mxCell id="25D4_33Wl1cBIHMB8N5j-7" value="" style="shape=partialRectangle;html=1;whiteSpace=wrap;connectable=0;fillColor=none;top=0;left=0;bottom=0;right=0;overflow=hidden;" vertex="1" parent="25D4_33Wl1cBIHMB8N5j-5">
          <mxGeometry x="90" width="250" height="53" as="geometry" />
        </mxCell>
        <mxCell id="25D4_33Wl1cBIHMB8N5j-8" value="" style="shape=partialRectangle;html=1;whiteSpace=wrap;connectable=0;fillColor=none;top=0;left=0;bottom=0;right=0;overflow=hidden;" vertex="1" parent="25D4_33Wl1cBIHMB8N5j-5">
          <mxGeometry x="340" width="170" height="53" as="geometry" />
        </mxCell>
        <mxCell id="25D4_33Wl1cBIHMB8N5j-9" value="" style="shape=partialRectangle;html=1;whiteSpace=wrap;collapsible=0;dropTarget=0;pointerEvents=0;fillColor=none;top=0;left=0;bottom=0;right=0;points=[[0,0.5],[1,0.5]];portConstraint=eastwest;" vertex="1" parent="25D4_33Wl1cBIHMB8N5j-4">
          <mxGeometry y="83" width="510" height="54" as="geometry" />
        </mxCell>
        <mxCell id="25D4_33Wl1cBIHMB8N5j-10" value="" style="shape=partialRectangle;html=1;whiteSpace=wrap;connectable=0;fillColor=none;top=0;left=0;bottom=0;right=0;overflow=hidden;" vertex="1" parent="25D4_33Wl1cBIHMB8N5j-9">
          <mxGeometry width="90" height="54" as="geometry" />
        </mxCell>
        <mxCell id="25D4_33Wl1cBIHMB8N5j-11" value="" style="shape=partialRectangle;html=1;whiteSpace=wrap;connectable=0;fillColor=none;top=0;left=0;bottom=0;right=0;overflow=hidden;" vertex="1" parent="25D4_33Wl1cBIHMB8N5j-9">
          <mxGeometry x="90" width="250" height="54" as="geometry" />
        </mxCell>
        <mxCell id="25D4_33Wl1cBIHMB8N5j-12" value="" style="shape=partialRectangle;html=1;whiteSpace=wrap;connectable=0;fillColor=none;top=0;left=0;bottom=0;right=0;overflow=hidden;" vertex="1" parent="25D4_33Wl1cBIHMB8N5j-9">
          <mxGeometry x="340" width="170" height="54" as="geometry" />
        </mxCell>
        <mxCell id="25D4_33Wl1cBIHMB8N5j-13" value="" style="shape=partialRectangle;html=1;whiteSpace=wrap;collapsible=0;dropTarget=0;pointerEvents=0;fillColor=none;top=0;left=0;bottom=0;right=0;points=[[0,0.5],[1,0.5]];portConstraint=eastwest;" vertex="1" parent="25D4_33Wl1cBIHMB8N5j-4">
          <mxGeometry y="137" width="510" height="53" as="geometry" />
        </mxCell>
        <mxCell id="25D4_33Wl1cBIHMB8N5j-14" value="" style="shape=partialRectangle;html=1;whiteSpace=wrap;connectable=0;fillColor=none;top=0;left=0;bottom=0;right=0;overflow=hidden;" vertex="1" parent="25D4_33Wl1cBIHMB8N5j-13">
          <mxGeometry width="90" height="53" as="geometry" />
        </mxCell>
        <mxCell id="25D4_33Wl1cBIHMB8N5j-15" value="" style="shape=partialRectangle;html=1;whiteSpace=wrap;connectable=0;fillColor=none;top=0;left=0;bottom=0;right=0;overflow=hidden;" vertex="1" parent="25D4_33Wl1cBIHMB8N5j-13">
          <mxGeometry x="90" width="250" height="53" as="geometry" />
        </mxCell>
        <mxCell id="25D4_33Wl1cBIHMB8N5j-16" value="" style="shape=partialRectangle;html=1;whiteSpace=wrap;connectable=0;fillColor=none;top=0;left=0;bottom=0;right=0;overflow=hidden;" vertex="1" parent="25D4_33Wl1cBIHMB8N5j-13">
          <mxGeometry x="340" width="170" height="53" as="geometry" />
        </mxCell>
      </root>
    </mxGraphModel>
  </diagram>
</mxfile>
